<?xml version="1.0" encoding="UTF-8"?>
<!DOCTYPE svg PUBLIC "-//W3C//DTD SVG 1.1//EN" "http://www.w3.org/Graphics/SVG/1.1/DTD/svg11.dtd">
<!-- Creator: CorelDRAW X6 -->
<svg xmlns="http://www.w3.org/2000/svg" xml:space="preserve" width="100%" height="100%" version="1.1" style="shape-rendering:geometricPrecision; text-rendering:geometricPrecision; image-rendering:optimizeQuality; fill-rule:evenodd; clip-rule:evenodd"
viewBox="0 0 500 500"
 xmlns:xlink="http://www.w3.org/1999/xlink">
 <defs>
  <style type="text/css">
   <![CDATA[
    .fil1 {fill:#202020}
   ]]>
  </style>
 </defs>
 <g id="Layer_x0020_1">
  <metadata id="CorelCorpID_0Corel-Layer"/>
  <path class="fil1" d="M225 413l14 0 -11 22 44 0 -11 -21 14 -1c27,-55 41,-114 41,-175 0,-39 -3,-81 -13,-120l-106 0c-10,39 -13,81 -13,120 0,61 14,120 41,175zm-41 -91c-8,12 -22,17 -22,37l0 120 22 0 26 -69c-11,-29 -20,-58 -26,-88zm132 0c8,12 22,17 22,37l0 120 -22 0 -26 -69c12,-29 20,-58 26,-88zm-20 -226c-10,-29 -25,-56 -46,-77 -21,21 -36,48 -46,77l92 0zm-46 177c12,0 22,10 22,22 0,12 -10,22 -22,22 -12,0 -22,-10 -22,-22 0,-12 10,-22 22,-22zm0 -66c12,0 22,10 22,22 0,12 -10,22 -22,22 -12,0 -22,-10 -22,-22 0,-12 10,-22 22,-22zm0 -66c12,0 22,10 22,22 0,12 -10,22 -22,22 -12,0 -22,-10 -22,-22 0,-12 10,-22 22,-22z"/>
 </g>
</svg>
